<svg width="40" height="40" viewBox="0 0 40 40" fill="none" xmlns="http://www.w3.org/2000/svg">
<path d="M14.9375 27.8809H25.2734C26.9697 27.8809 27.9541 26.8965 27.9541 25.0156V15.9189C27.9541 14.0381 26.9609 13.0537 25.0625 13.0537H23.8232C23.7793 11.085 22.1006 9.4502 20 9.4502C17.9082 9.4502 16.2207 11.085 16.1768 13.0537H14.9375C13.0391 13.0537 12.0459 14.0381 12.0459 15.9189V25.0156C12.0459 26.8965 13.0391 27.8809 14.9375 27.8809ZM20 11.0059C21.2041 11.0059 22.0918 11.9111 22.127 13.0537H17.873C17.9082 11.9111 18.7959 11.0059 20 11.0059Z" fill="black"/>
</svg>
