<svg width="40" height="40" viewBox="0 0 40 40" fill="none" xmlns="http://www.w3.org/2000/svg">
<path d="M8.40723 26.2373C8.40723 26.6855 8.70605 26.9932 9.16309 26.9932H30.8369C31.2939 26.9932 31.5928 26.6855 31.5928 26.2373V13.0801C31.5928 12.623 31.2939 12.3242 30.8369 12.3242H9.16309C8.70605 12.3242 8.40723 12.623 8.40723 13.0801V26.2373ZM10.2617 24.6553V14.6621C10.2617 14.3369 10.4287 14.1787 10.7363 14.1787H29.2725C29.5713 14.1787 29.7471 14.3369 29.7471 14.6621V24.6553C29.7471 24.9717 29.5713 25.1387 29.2725 25.1387H10.7363C10.4287 25.1387 10.2617 24.9717 10.2617 24.6553ZM11.2285 23.9697C11.2285 24.1016 11.2988 24.1631 11.4219 24.1631H17.9697C17.1172 23.249 16.6162 21.6582 16.6162 19.6455C16.6162 17.6504 17.1172 16.0684 17.9609 15.1455H11.4219C11.2988 15.1455 11.2285 15.2158 11.2285 15.3389V23.9697ZM22.0127 24.1631H28.5869C28.7012 24.1631 28.7715 24.1016 28.7715 23.9697V15.3389C28.7715 15.2158 28.7012 15.1455 28.5869 15.1455H22.0215C22.8916 16.0684 23.4014 17.6504 23.4014 19.6455C23.4014 21.6582 22.8828 23.249 22.0127 24.1631ZM17.7236 19.6455C17.7236 22.2734 18.6377 23.9697 19.9648 23.9697C21.3447 23.9697 22.2852 22.2734 22.2852 19.6455C22.2852 17.0264 21.3447 15.3389 19.9648 15.3389C18.6377 15.3389 17.7236 17.0264 17.7236 19.6455Z" fill="black"/>
</svg>
