<svg width="40" height="40" viewBox="0 0 40 40" fill="none" xmlns="http://www.w3.org/2000/svg">
<path d="M12.8809 28.5752C13.25 28.5752 13.5225 28.4082 13.9619 28.0039L16.4492 25.71C15.957 25.3057 15.5352 24.6465 15.5352 23.2666V17.123C15.5352 14.3545 17.2314 12.6934 19.9912 12.6934H26.3018L26.293 12.4209C26.1348 10.6631 24.9658 9.49414 22.8916 9.49414H10.6836C8.58301 9.49414 7.25586 10.7158 7.25586 12.8604V21.6494C7.25586 23.7676 8.56543 25.0771 10.6221 25.0771H12.0371V27.626C12.0371 28.2061 12.3535 28.5752 12.8809 28.5752ZM27.6201 29.832C28.1475 29.832 28.4551 29.4629 28.4551 28.8828V26.334H29.3691C31.4346 26.334 32.7441 25.0244 32.7441 22.9062V17.3428C32.7441 15.1982 31.417 13.9766 29.3164 13.9766H20.2461C18.0664 13.9766 16.8184 15.1982 16.8184 17.3691V22.9062C16.8184 25.042 18.0752 26.334 20.2461 26.334H23.3047L26.5391 29.2607C26.9785 29.6562 27.251 29.832 27.6201 29.832ZM24.8164 21.3154C24.3682 21.3154 24.1221 21.0605 24.1045 20.6123L23.9902 17.4482C23.9727 16.9824 24.3242 16.6572 24.8076 16.6572C25.291 16.6572 25.6426 16.9912 25.625 17.4482L25.5107 20.6123C25.4932 21.0693 25.2471 21.3154 24.8164 21.3154ZM24.8076 24.1543C24.3066 24.1543 23.8848 23.8027 23.8848 23.293C23.8848 22.792 24.2979 22.4316 24.8076 22.4316C25.3086 22.4316 25.7217 22.7832 25.7217 23.293C25.7217 23.8115 25.3086 24.1543 24.8076 24.1543Z" fill="black"/>
</svg>
