<svg width="40" height="40" viewBox="0 0 40 40" fill="none" xmlns="http://www.w3.org/2000/svg">
<path d="M14.3486 19.6543C14.3486 19.9619 14.4629 20.2256 14.709 20.4541L21.5469 27.1514C21.7402 27.3447 21.9863 27.4502 22.2764 27.4502C22.8564 27.4502 23.3223 26.9932 23.3223 26.4043C23.3223 26.1143 23.1992 25.8594 23.0059 25.6572L16.8447 19.6543L23.0059 13.6514C23.1992 13.4492 23.3223 13.1855 23.3223 12.9043C23.3223 12.3154 22.8564 11.8584 22.2764 11.8584C21.9863 11.8584 21.7402 11.9639 21.5469 12.1572L14.709 18.8457C14.4629 19.083 14.3486 19.3467 14.3486 19.6543Z" fill="black"/>
</svg>
