<svg width="40" height="40" viewBox="0 0 40 40" fill="none" xmlns="http://www.w3.org/2000/svg">
<path d="M25.6514 19.6543C25.6426 19.3467 25.5283 19.083 25.291 18.8457L18.4531 12.1572C18.251 11.9639 18.0137 11.8584 17.7236 11.8584C17.1348 11.8584 16.6777 12.3154 16.6777 12.9043C16.6777 13.1855 16.792 13.4492 16.9941 13.6514L23.1465 19.6543L16.9941 25.6572C16.792 25.8594 16.6777 26.1143 16.6777 26.4043C16.6777 26.9932 17.1348 27.4502 17.7236 27.4502C18.0049 27.4502 18.251 27.3447 18.4531 27.1514L25.291 20.4541C25.5371 20.2256 25.6514 19.9619 25.6514 19.6543Z" fill="#1C1C1E"/>
</svg>
