<svg width="40" height="40" viewBox="0 0 40 40" fill="none" xmlns="http://www.w3.org/2000/svg">
<path d="M10.5605 29.1992C10.5605 29.6475 10.9297 30.0254 11.3867 30.0254H24.9482C25.3965 30.0254 25.7744 29.6475 25.7744 29.1992C25.7744 28.751 25.4053 28.373 24.9482 28.373H24.2715V22.6865C24.79 22.7656 25.1064 23.1172 25.1064 23.6621V25.1123C25.1064 26.4307 25.9854 27.3096 27.3037 27.3096C28.5781 27.3096 29.4307 26.4307 29.4307 25.1123V16.0244C29.4307 14.873 29.2197 13.915 28.8066 13.168C28.3848 12.4561 27.7607 11.9727 26.9521 11.7266C26.5918 11.6123 26.1875 11.832 26.0732 12.1924C25.9678 12.5703 26.1787 12.9746 26.5566 13.0801C27.0225 13.2031 27.6641 13.5723 27.9189 14.8203H26.7412C26.3105 14.8203 25.9766 15.1543 25.9766 15.585V19.0742C25.9766 19.4961 26.3193 19.8301 26.7412 19.8301H28.0244V25.1123C28.0244 25.5781 27.7344 25.8857 27.3125 25.8857C26.8291 25.8857 26.5039 25.5781 26.5039 25.1123V23.6445C26.5039 22.2207 25.6777 21.3418 24.2715 21.2627V11.6826C24.2715 10.127 23.4365 9.29199 21.8809 9.29199H14.4541C12.8984 9.29199 12.0635 10.127 12.0635 11.6826V28.373H11.3867C10.9385 28.373 10.5605 28.751 10.5605 29.1992ZM14.8057 19.1533C14.1289 19.1533 13.7158 18.7754 13.7158 18.1602V11.9375C13.7158 11.3223 14.1289 10.9443 14.8057 10.9443H21.5293C22.2061 10.9443 22.6191 11.3223 22.6191 11.9375V18.1602C22.6191 18.7754 22.2061 19.1533 21.5293 19.1533H14.8057Z" fill="black"/>
</svg>
