<svg width="40" height="40" viewBox="0 0 40 40" fill="none" xmlns="http://www.w3.org/2000/svg">
<path d="M19.2002 29.0059H20.8086C21.3359 29.0059 21.7314 28.6895 21.8457 28.1709L22.2852 26.3164C22.584 26.2109 22.8652 26.0967 23.1289 25.9736L24.7549 26.9756C25.1855 27.248 25.7041 27.2041 26.0645 26.8438L27.1982 25.71C27.5586 25.3496 27.6113 24.8135 27.3213 24.374L26.3281 22.7656C26.4512 22.502 26.5654 22.2207 26.6533 21.9482L28.5254 21.5088C29.0439 21.3945 29.3516 20.999 29.3516 20.4717V18.8896C29.3516 18.3711 29.0439 17.9668 28.5254 17.8525L26.6709 17.4043C26.5742 17.0967 26.4512 16.8242 26.3457 16.5869L27.3389 14.9434C27.6201 14.4951 27.585 13.9941 27.207 13.625L26.0645 12.4912C25.6953 12.1572 25.2295 12.0957 24.7812 12.3418L23.1289 13.3613C22.874 13.2383 22.5928 13.124 22.2939 13.0186L21.8457 11.1377C21.7314 10.6191 21.3359 10.3027 20.8086 10.3027H19.2002C18.6641 10.3027 18.2686 10.6191 18.1543 11.1377L17.7148 13.0098C17.416 13.1064 17.126 13.2207 16.8623 13.3525L15.2188 12.3418C14.7705 12.0957 14.3135 12.1484 13.9355 12.4912L12.793 13.625C12.415 13.9941 12.3799 14.4951 12.6611 14.9434L13.6543 16.5869C13.5488 16.8242 13.4346 17.0967 13.3291 17.4043L11.4746 17.8525C10.9561 17.9668 10.6484 18.3711 10.6484 18.8896V20.4717C10.6484 20.999 10.9561 21.3945 11.4746 21.5088L13.3467 21.9482C13.4346 22.2207 13.5488 22.502 13.6719 22.7656L12.6787 24.374C12.3887 24.8135 12.4414 25.3496 12.8105 25.71L13.9355 26.8438C14.2959 27.2041 14.8145 27.248 15.2539 26.9756L16.8711 25.9736C17.1348 26.0967 17.416 26.2109 17.7148 26.3164L18.1543 28.1709C18.2686 28.6895 18.6641 29.0059 19.2002 29.0059ZM20 22.7305C18.3125 22.7305 16.9326 21.3418 16.9326 19.6455C16.9326 17.9668 18.3125 16.5869 20 16.5869C21.6963 16.5869 23.0762 17.9668 23.0762 19.6455C23.0762 21.3418 21.6963 22.7305 20 22.7305Z" fill="black" fill-opacity="0.3"/>
</svg>
