<svg width="40" height="40" viewBox="0 0 40 40" fill="none" xmlns="http://www.w3.org/2000/svg">
<path d="M25.3702 28.7158C28.8419 28.7158 31.6104 26 31.6104 22.6074C31.6104 20.7354 30.6788 18.8896 29.879 17.3955L26.6885 11.4277C26.3897 10.874 25.9327 10.6104 25.3702 10.6104C24.7901 10.6104 24.3419 10.8828 24.0518 11.4277L22.461 14.3896C23.3839 14.4863 24.254 14.7764 25.0538 15.2686C25.5811 15.5762 25.6251 16.1035 25.379 16.4639C25.1592 16.7715 24.7549 16.9033 24.3594 16.6836C23.5245 16.1826 22.6983 15.9189 21.626 15.9453C20.7383 17.6064 20.5801 17.9141 20.4307 18.2041C20.8702 18.1074 21.3184 18.0547 21.8018 18.0547C22.9708 18.0547 24.0606 18.3623 25.0538 18.9688C25.5635 19.2676 25.6163 19.7861 25.3878 20.1465C25.1768 20.4629 24.7637 20.6211 24.3594 20.3838C23.5421 19.8916 22.751 19.6279 21.8018 19.6279C21.0548 19.6279 20.4571 19.7773 19.6133 20.1289C19.3673 20.8232 19.1651 21.5703 19.1299 22.3086C20.044 21.9482 20.835 21.7549 21.8018 21.7549C22.9708 21.7549 24.0606 22.0625 25.0538 22.6689C25.5635 22.9678 25.6163 23.4951 25.379 23.8555C25.168 24.1719 24.7549 24.3125 24.3594 24.084C23.5421 23.5918 22.751 23.3281 21.8018 23.3281C20.9405 23.3281 20.2901 23.5215 19.2794 23.9609C19.8946 26.6943 22.3731 28.7158 25.3702 28.7158ZM12.046 19.25C13.7686 19.25 14.9112 18.6436 17.2491 17.5186C19.4376 16.4639 20.3428 15.9893 21.5118 15.9541C21.5557 15.9453 21.5821 15.9453 21.626 15.9453L22.461 14.3896C22.2501 14.3633 22.0303 14.3545 21.8018 14.3545C20.0616 14.3545 18.9014 14.9697 16.5635 16.0947C14.1905 17.2373 13.3731 17.6768 12.046 17.6768C11.1846 17.6768 10.4112 17.4658 9.54108 16.9385C9.13678 16.71 8.73249 16.8506 8.52155 17.167C8.28424 17.5273 8.32819 18.0459 8.84674 18.3535C9.76081 18.8984 10.8331 19.25 12.046 19.25ZM12.046 22.9502C13.7686 22.9502 14.9112 22.3438 17.2491 21.2188C18.2686 20.7266 18.9981 20.3662 19.6133 20.1289C19.8331 19.4434 20.1319 18.8018 20.4307 18.2041C19.3145 18.4414 18.2423 18.9863 16.5635 19.7949C14.1905 20.9375 13.3731 21.377 12.046 21.377C11.1846 21.377 10.4112 21.166 9.54108 20.6387C9.13678 20.4102 8.73249 20.5508 8.52155 20.8672C8.28424 21.2275 8.3194 21.7461 8.84674 22.0537C9.76081 22.6074 10.8331 22.9502 12.046 22.9502ZM12.046 26.6504C13.7686 26.6504 14.9112 26.0439 17.2491 24.9189C18.0928 24.5146 18.7344 24.1982 19.2794 23.9609C19.1651 23.4688 19.0948 22.7656 19.1299 22.3086C18.4005 22.5986 17.6006 22.9941 16.5635 23.4951C14.1905 24.6377 13.3731 25.0771 12.046 25.0771C11.1846 25.0771 10.4112 24.8662 9.54108 24.3389C9.12799 24.1104 8.71491 24.2598 8.50397 24.585C8.28424 24.9541 8.33698 25.4551 8.84674 25.7539C9.76081 26.3076 10.8331 26.6504 12.046 26.6504Z" fill="black"/>
</svg>
