<svg width="140" height="140" viewBox="0 0 140 140" fill="none" xmlns="http://www.w3.org/2000/svg">
<path d="M69.9966 0C31.3978 0 0 31.403 0 70C0 108.597 31.3978 140 69.9966 140C108.595 140 140 108.597 140 70C140 31.403 108.595 0 69.9966 0ZM69.9966 129.414C37.2366 129.414 10.5796 102.765 10.5796 70C10.5796 37.2416 37.2366 10.5859 69.9966 10.5859C102.757 10.5859 129.414 37.2416 129.414 70C129.414 102.765 102.757 129.414 69.9966 129.414Z" fill="black" fill-opacity="0.05"/>
<path d="M60.8565 69.336C60.8565 74.4719 65.0503 78.6302 70.223 78.6302C75.4025 78.6302 79.5891 74.4719 79.5891 69.336C79.5891 64.2069 75.4025 60.0418 70.223 60.0418C70.1605 60.0418 70.091 60.0555 70.0216 60.0555L35.4795 34.5206L60.9053 68.3377C60.8776 68.675 60.8565 68.9986 60.8565 69.336Z" fill="black" fill-opacity="0.05"/>
<path d="M82.8122 91.0959H42.1918V113.151H97.8082V91.0959H82.8122ZM52.345 108.373H47.0273V95.8598H52.345V108.373ZM62.4986 108.373H57.1806V95.8598H62.4986V108.373ZM72.659 108.373H67.341V95.8598H72.659V108.373ZM82.8122 108.373H77.4946V95.8598H82.8122V108.373ZM92.9658 95.8598V108.373H87.6478V95.8598H92.9658Z" fill="black" fill-opacity="0.05"/>
</svg>
