<svg width="140" height="64" viewBox="0 0 140 64" fill="none" xmlns="http://www.w3.org/2000/svg">
<path d="M126.841 22.5394H116.664L116.129 21.9087C118.975 17.7689 122.458 12.8436 124.518 10.4067C126.015 8.64074 127.233 8.56046 127.632 8.53753C129.641 8.40565 131.798 9.93083 132.47 10.5443C134.189 12.1268 136.847 12.0179 138.429 10.3035C140.023 8.57764 139.926 5.88278 138.213 4.28307C137.706 3.80716 133.107 -0.344025 127.176 0.0229345C124.78 0.160544 121.263 1.11806 118.081 4.8794C116.123 7.19009 113.135 11.3471 110.46 15.2001L98.5014 1.05504H58.0958L36.49 22.5394H13.1594C5.89102 22.5394 0 28.7318 0 36.3691V38.9952C0 46.6382 5.89102 52.8249 13.1594 52.8249H18.0827C19.7048 59.2467 25.4592 64 32.3348 64C39.2105 64 44.9707 59.2467 46.5928 52.8249H95.5985C97.2207 59.2467 102.975 64 109.851 64C116.726 64 122.486 59.2467 124.103 52.8249H126.841C134.109 52.8249 140 46.6382 140 38.9952V36.3691C140 28.7318 134.109 22.5394 126.841 22.5394Z" fill="black" fill-opacity="0.05"/>
</svg>
