<svg width="140" height="140" viewBox="0 0 140 140" fill="none" xmlns="http://www.w3.org/2000/svg">
<path d="M39.5898 16.9434C32.8662 16.9434 29.0869 20.7666 29.0869 27.6221V93.1006C29.0869 99.9121 32.8662 103.735 39.5898 103.735H55.6299C62.3096 103.735 66.1328 99.9121 66.1328 93.1006V27.6221C66.1328 20.7666 62.3096 16.9434 55.6299 16.9434H39.5898ZM84.4141 47.5732C77.7344 47.5732 73.9111 51.3965 73.9111 58.208V93.1006C73.9111 99.9121 77.7344 103.735 84.4141 103.735H100.498C107.178 103.735 110.957 99.9121 110.957 93.1006V58.208C110.957 51.3965 107.178 47.5732 100.498 47.5732H84.4141ZM21.4844 111.733C19.375 111.733 17.6611 113.579 17.6611 115.688C17.6611 117.842 19.375 119.688 21.4844 119.688H118.472C120.625 119.688 122.295 117.842 122.295 115.688C122.295 113.579 120.625 111.733 118.472 111.733H21.4844Z" fill="black" fill-opacity="0.05"/>
</svg>
