<svg width="40" height="40" viewBox="0 0 40 40" fill="none" xmlns="http://www.w3.org/2000/svg">
<path d="M16.748 25.0332H23.252C23.6035 25.0332 23.8408 24.7959 23.8408 24.4443V23.0996C23.8408 20.9727 26.9609 19.6367 26.9609 15.752C26.9609 11.6387 24.1572 8.87891 20 8.87891C15.834 8.87891 13.0391 11.6387 13.0391 15.752C13.0391 19.6367 16.1592 20.9727 16.1592 23.0996V24.4443C16.1592 24.7959 16.3965 25.0332 16.748 25.0332ZM17.0029 27.4766H22.9971C23.4717 27.4766 23.8584 27.0898 23.8584 26.6064C23.8584 26.1318 23.4717 25.7363 22.9971 25.7363H17.0029C16.5283 25.7363 16.1416 26.1318 16.1416 26.6064C16.1416 27.0898 16.5283 27.4766 17.0029 27.4766ZM20 29.6914C21.2832 29.6914 22.2061 29.0938 22.2939 28.1885H17.6973C17.7852 29.0938 18.6992 29.6914 20 29.6914Z" fill="black" fill-opacity="0.3"/>
</svg>
