<svg width="40" height="40" viewBox="0 0 40 40" fill="none" xmlns="http://www.w3.org/2000/svg">
<path d="M10.9736 29.0674C12.538 30.6143 14.6562 30.6055 16.1591 29.085C17.5478 27.6875 17.9169 25.9736 20.2812 22.9238L23.9902 26.6328L24.0429 27.5029C24.0605 27.8018 24.2626 28.1182 24.5703 28.2939L27.4619 29.9287C27.7519 30.0869 28.0068 30.1221 28.2177 29.9111L29.413 28.7158C29.6064 28.5137 29.58 28.25 29.413 27.9512L27.7871 25.0771C27.6201 24.7695 27.3037 24.5674 26.9873 24.5498L26.1171 24.4971L22.2324 20.6211C22.6103 20.208 23.0234 19.7773 23.4716 19.3291C25.3613 20.1641 27.6113 19.8477 29.1054 18.3447C30.749 16.71 31.0039 14.1084 29.7207 12.0518L28.7187 13.0537V13.0625L27.3037 14.46C27.0839 14.6885 26.8115 14.6973 26.583 14.46L25.5986 13.4756C25.3525 13.2295 25.3437 12.957 25.5634 12.7373L26.9697 11.3311L27.9804 10.3291C25.9326 9.0459 23.3398 9.29199 21.6962 10.9355C20.4042 12.2363 19.9824 14.082 20.4306 15.7783L15.6142 10.9443C14.3134 9.64355 12.916 9.63477 11.6415 10.9092L10.4023 12.1572C9.12788 13.4229 9.13667 14.8203 10.4374 16.1211L15.3505 21.0342C13.3466 22.335 12.0634 22.7832 10.956 23.873C9.4355 25.3848 9.42671 27.4941 10.9736 29.0674ZM24.5351 14.2402L25.8095 15.5059C26.4687 16.165 27.3124 16.1826 27.9365 15.5586L29.123 14.3633C29.2724 15.4707 28.9296 16.5781 28.1298 17.3779C26.6972 18.8105 24.3242 18.7402 22.8037 17.2373C21.2919 15.7256 21.2304 13.335 22.6718 11.9111C23.4628 11.1201 24.5703 10.7773 25.6689 10.918L24.4824 12.0957C23.832 12.7461 23.8583 13.5811 24.5351 14.2402ZM16.8447 16.7627L13.496 13.3877C13.3378 13.2295 13.329 12.9746 13.496 12.8076C13.6542 12.6494 13.9179 12.6406 14.0849 12.8076L17.4423 16.165C17.6093 16.3232 17.6093 16.5957 17.4335 16.7715C17.2929 16.9121 17.0117 16.9385 16.8447 16.7627ZM15.6582 17.9404L12.2919 14.6006C12.1249 14.4248 12.1425 14.1611 12.3007 13.9941C12.4589 13.8359 12.7314 13.8447 12.8808 13.9941L16.2558 17.3604C16.4228 17.5361 16.414 17.7822 16.2558 17.9404C16.0888 18.1074 15.8251 18.1162 15.6582 17.9404ZM21.8281 18.2041C21.9863 18.3535 22.1445 18.5029 22.3115 18.626C16.5371 24.5674 17.1347 26.0527 15.1308 28.0654C14.2167 28.9883 12.9687 29.0234 11.9931 28.0566C11.0175 27.0635 11.0615 25.8242 11.9755 24.9102C13.9882 22.9062 15.4648 23.5039 21.4062 17.7295C21.538 17.8965 21.6787 18.0547 21.8281 18.2041ZM13.54 27.5645C14.1113 27.5645 14.5771 27.0986 14.5771 26.5186C14.5771 25.9473 14.1113 25.4814 13.54 25.4814C12.9687 25.4814 12.4941 25.9473 12.4941 26.5186C12.4941 27.0986 12.9687 27.5645 13.54 27.5645Z" fill="black"/>
</svg>
